<svg width="18" height="19" viewBox="0 0 18 19" fill="none" xmlns="http://www.w3.org/2000/svg">
<path d="M9.00001 9.28072C11.3012 9.28072 13.1667 7.41524 13.1667 5.11405C13.1667 2.81287 11.3012 0.947388 9.00001 0.947388C6.69882 0.947388 4.83334 2.81287 4.83334 5.11405C4.83334 7.41524 6.69882 9.28072 9.00001 9.28072Z" stroke="white" stroke-width="1.66667"/>
<path d="M13.1667 10.9474H13.46C14.0692 10.9476 14.6574 11.1702 15.1141 11.5735C15.5708 11.9767 15.8645 12.5329 15.94 13.1374L16.2658 15.7407C16.2952 15.9752 16.2742 16.2133 16.2045 16.4391C16.1348 16.665 16.0178 16.8734 15.8614 17.0506C15.7049 17.2277 15.5126 17.3696 15.2971 17.4667C15.0817 17.5639 14.848 17.6141 14.6117 17.6141H3.38834C3.15199 17.6141 2.91834 17.5639 2.70288 17.4667C2.48742 17.3696 2.29509 17.2277 2.13866 17.0506C1.98222 16.8734 1.86525 16.665 1.79551 16.4391C1.72578 16.2133 1.70487 15.9752 1.73418 15.7407L2.05918 13.1374C2.13476 12.5326 2.42869 11.9762 2.8857 11.5729C3.34272 11.1696 3.93132 10.9472 4.54084 10.9474H4.83334" stroke="white" stroke-width="1.66667" stroke-linecap="round" stroke-linejoin="round"/>
</svg>
